<?xml version="1.0" encoding="utf-8"?>
<!-- Generator: Adobe Illustrator 19.0.0, SVG Export Plug-In . SVG Version: 6.00 Build 0)  -->
<svg version="1.1" id="Layer_1" xmlns="http://www.w3.org/2000/svg" xmlns:xlink="http://www.w3.org/1999/xlink" x="0px" y="0px"
	 viewBox="-50 173.1 495 495.8" style="enable-background:new -50 173.1 495 495.8;" xml:space="preserve">
<style type="text/css">
	.st0{opacity:0.8;fill:#BCBCBC;enable-background:new    ;}
	.st1{fill:#565656;}
	.st2{fill:#333333;}
	.st3{fill:#D2A22A;}
</style>
<path id="XMLID_258_" class="st0" d="M320.5,250.4v-44H63v44c0,109.5,67.6,152.7,104.8,168.3c2.1,0.9,2.1,3.7,0,4.6
	C130.6,438.7,63,482,63,591.5v44h257.5v-44c0-109.5-67.6-152.8-104.8-168.3c-2.1-0.9-2.1-3.7,0-4.6
	C252.9,403.2,320.5,360,320.5,250.4z"/>
<path id="XMLID_128_" class="st1" d="M331.2,635.5h-279c-4.6,0-8.3,3.7-8.3,8.3v11.6c0,4.6,3.7,8.3,8.3,8.3h279
	c4.6,0,8.3-3.7,8.3-8.3v-11.6C339.5,639.2,335.8,635.5,331.2,635.5z"/>
<path id="XMLID_110_" class="st2" d="M331.1,655.1H52.3c-4.6,0-8.3-3.8-8.3-8.3v8.5c0,4.6,3.8,8.3,8.3,8.3h278.8
	c4.6,0,8.3-3.8,8.3-8.3v-8.5C339.5,651.5,335.8,655.1,331.1,655.1z"/>
<path id="XMLID_92_" class="st3" d="M79.5,270.7c-2.5-0.8-5.1,1.2-4.8,3.9c2.4,23.1,8.3,43.9,17.6,62.2
	c9.9,19.6,23.7,36.4,41.1,50.1c25.3,20,51.1,27.5,58.4,29.3c7.4-1.8,32.4-9,57.7-28.8c17.5-13.7,31.5-30.5,41.5-50.1
	c9.4-18.5,15.4-39.6,17.9-62.8c0.3-2.7-2.3-4.7-4.8-3.9l-79.2,25.9c-21.5,7.1-44.6,7.1-66.1,0L79.5,270.7z"/>
<polygon id="XMLID_91_" class="st3" points="73.4,635.5 191.7,531.9 309.9,635.5 "/>
<g id="XMLID_38_">
	<rect id="XMLID_48_" x="187.6" y="406.6" class="st3" width="8.3" height="139.2"/>
</g>
<path id="XMLID_153_" class="st1" d="M331.7,178.3h-280c-4.3,0-7.8,3.5-7.8,7.8v12.6c0,4.3,3.5,7.8,7.8,7.8h280
	c4.3,0,7.8-3.5,7.8-7.8v-12.6C339.5,181.8,336,178.3,331.7,178.3z"/>
<path id="XMLID_18_" class="st2" d="M331.1,197.9H52.3c-4.6,0-8.3-3.8-8.3-8.3v8.5c0,4.6,3.8,8.3,8.3,8.3h278.8
	c4.6,0,8.3-3.8,8.3-8.3v-8.5C339.5,194.1,335.8,197.9,331.1,197.9z"/>
</svg>
